<svg xmlns="http://www.w3.org/2000/svg" xmlns:xlink="http://www.w3.org/1999/xlink" width="500" zoomAndPan="magnify" viewBox="0 0 375 374.999991" height="500" preserveAspectRatio="xMidYMid meet" version="1.0"><defs><clipPath id="aae8de957d"><path d="M 12.082031 87.292969 L 363.082031 87.292969 L 363.082031 287.542969 L 12.082031 287.542969 Z M 12.082031 87.292969 " clip-rule="nonzero"/></clipPath></defs><g clip-path="url(#aae8de957d)"><path fill="#000000" d="M 313.828125 256.714844 L 319.597656 271.625 C 320.289062 273.40625 320.542969 275.25 320.367188 277.050781 C 320.191406 278.882812 319.589844 280.644531 318.574219 282.246094 C 317.535156 283.878906 316.1875 285.164062 314.609375 286.050781 C 313.011719 286.949219 311.21875 287.421875 309.308594 287.421875 L 300.695312 287.421875 C 298.703125 287.421875 296.832031 286.902344 295.1875 285.929688 C 293.574219 284.976562 292.210938 283.59375 291.191406 281.84375 L 276.597656 256.714844 L 98.550781 256.714844 L 83.957031 281.84375 C 82.941406 283.59375 81.574219 284.976562 79.960938 285.929688 C 78.316406 286.902344 76.445312 287.421875 74.453125 287.421875 L 65.839844 287.421875 C 64.070312 287.421875 62.386719 287.003906 60.859375 286.207031 C 60.75 286.160156 60.644531 286.109375 60.542969 286.050781 C 58.964844 285.164062 57.613281 283.878906 56.574219 282.246094 C 55.558594 280.644531 54.957031 278.882812 54.78125 277.050781 C 54.605469 275.25 54.859375 273.40625 55.550781 271.625 L 61.324219 256.714844 L 46.882812 256.714844 C 39.105469 256.714844 32.0625 253.382812 26.964844 248.003906 L 26.960938 247.996094 L 26.953125 248.003906 C 21.914062 242.683594 18.796875 235.347656 18.796875 227.265625 L 18.796875 202.222656 C 16.691406 199.414062 15.007812 196.214844 13.847656 192.742188 C 12.699219 189.300781 12.074219 185.628906 12.074219 181.84375 C 12.074219 172.777344 15.566406 164.558594 21.214844 158.59375 C 21.285156 158.519531 21.359375 158.449219 21.433594 158.378906 C 26.296875 153.339844 32.699219 149.949219 39.828125 149.070312 L 39.828125 131.742188 C 39.828125 119.601562 44.542969 108.550781 52.136719 100.53125 C 59.789062 92.449219 70.355469 87.429688 81.984375 87.429688 L 177.003906 87.429688 C 180.964844 87.429688 184.558594 89.136719 187.152344 91.878906 L 187.144531 91.886719 C 187.292969 92.039062 187.433594 92.199219 187.574219 92.359375 C 187.714844 92.195312 187.859375 92.035156 188.007812 91.878906 C 190.609375 89.132812 194.195312 87.429688 198.144531 87.429688 L 293.164062 87.429688 C 304.792969 87.429688 315.359375 92.449219 323.011719 100.53125 C 330.605469 108.550781 335.320312 119.601562 335.320312 131.742188 L 335.320312 149.066406 C 342.558594 149.957031 349.046875 153.433594 353.933594 158.59375 C 359.582031 164.558594 363.074219 172.777344 363.074219 181.84375 C 363.074219 185.628906 362.449219 189.300781 361.300781 192.742188 C 360.140625 196.214844 358.457031 199.414062 356.351562 202.222656 L 356.351562 227.265625 C 356.351562 235.347656 353.234375 242.683594 348.195312 248.003906 C 348.128906 248.078125 348.054688 248.148438 347.980469 248.214844 C 342.898438 253.472656 335.941406 256.714844 328.265625 256.714844 Z M 183.878906 191.988281 C 183.878906 187.5625 182.175781 183.546875 179.429688 180.648438 C 176.746094 177.8125 173.046875 176.050781 168.988281 176.050781 L 74.484375 176.050781 C 74.804688 177.929688 74.96875 179.867188 74.96875 181.84375 L 74.96875 207.925781 L 183.878906 207.925781 Z M 66.320312 173.628906 C 66.289062 173.542969 66.261719 173.457031 66.234375 173.367188 C 65.019531 169.660156 63.023438 166.347656 60.460938 163.640625 C 56.121094 159.058594 50.132812 156.222656 43.523438 156.222656 C 36.996094 156.222656 31.078125 158.976562 26.753906 163.445312 C 26.699219 163.511719 26.640625 163.574219 26.582031 163.640625 C 22.183594 168.285156 19.464844 174.71875 19.464844 181.84375 C 19.464844 184.886719 19.949219 187.777344 20.835938 190.433594 C 21.753906 193.1875 23.117188 195.742188 24.835938 197.992188 C 25.214844 198.492188 25.519531 199.035156 25.746094 199.632812 C 25.78125 199.714844 25.8125 199.796875 25.839844 199.878906 C 26.070312 200.574219 26.1875 201.269531 26.1875 201.980469 L 26.1875 227.265625 C 26.1875 233.410156 28.53125 238.957031 32.320312 242.957031 L 32.3125 242.964844 C 36.042969 246.898438 41.195312 249.335938 46.882812 249.335938 L 328.265625 249.335938 C 333.867188 249.335938 338.945312 246.976562 342.660156 243.148438 C 342.714844 243.082031 342.769531 243.019531 342.828125 242.957031 C 346.617188 238.957031 348.960938 233.410156 348.960938 227.265625 L 348.960938 201.980469 C 348.960938 201.269531 349.078125 200.574219 349.308594 199.878906 C 349.539062 199.199219 349.871094 198.570312 350.3125 197.992188 C 352.03125 195.742188 353.394531 193.1875 354.3125 190.433594 C 355.199219 187.777344 355.683594 184.886719 355.683594 181.84375 C 355.683594 174.71875 352.964844 168.285156 348.566406 163.640625 C 344.226562 159.058594 338.234375 156.222656 331.625 156.222656 C 325.015625 156.222656 319.027344 159.058594 314.6875 163.640625 L 314.679688 163.632812 L 314.671875 163.640625 C 312.136719 166.316406 310.160156 169.597656 308.941406 173.265625 C 308.902344 173.414062 308.855469 173.558594 308.800781 173.699219 C 308 176.257812 307.566406 178.992188 307.566406 181.84375 L 307.566406 208.816406 C 307.566406 210.394531 306.992188 211.859375 306.050781 212.992188 C 305.96875 213.105469 305.878906 213.214844 305.78125 213.316406 C 304.617188 214.542969 303.003906 215.304688 301.222656 215.304688 L 73.925781 215.304688 C 72.144531 215.304688 70.53125 214.542969 69.367188 213.316406 L 69.375 213.308594 C 68.269531 212.136719 67.582031 210.542969 67.582031 208.816406 L 67.582031 181.84375 C 67.582031 178.96875 67.136719 176.207031 66.320312 173.628906 Z M 72.359375 168.671875 L 168.988281 168.671875 C 174.699219 168.671875 179.921875 170.949219 183.878906 174.6875 L 183.878906 102.285156 C 183.878906 100.175781 183.082031 98.277344 181.796875 96.921875 L 181.792969 96.914062 L 181.785156 96.921875 C 180.550781 95.621094 178.855469 94.808594 177.003906 94.808594 L 81.984375 94.808594 C 72.460938 94.808594 63.792969 98.933594 57.503906 105.574219 C 51.160156 112.277344 47.21875 121.542969 47.21875 131.742188 L 47.21875 149.066406 C 54.457031 149.957031 60.945312 153.433594 65.832031 158.59375 C 68.5625 161.476562 70.789062 164.890625 72.359375 168.671875 Z M 191.269531 174.6875 C 195.226562 170.949219 200.449219 168.671875 206.160156 168.671875 L 302.796875 168.671875 C 304.367188 164.898438 306.597656 161.488281 309.324219 158.601562 L 309.316406 158.59375 C 314.203125 153.433594 320.691406 149.957031 327.929688 149.066406 L 327.929688 131.742188 C 327.929688 121.542969 323.992188 112.277344 317.644531 105.574219 C 311.355469 98.933594 302.6875 94.808594 293.164062 94.808594 L 198.144531 94.808594 C 196.28125 94.808594 194.582031 95.621094 193.347656 96.921875 C 192.066406 98.277344 191.269531 100.175781 191.269531 102.285156 Z M 300.664062 176.050781 L 206.160156 176.050781 C 202.101562 176.050781 198.402344 177.8125 195.71875 180.648438 C 192.972656 183.546875 191.269531 187.5625 191.269531 191.988281 L 191.269531 207.925781 L 300.179688 207.925781 L 300.179688 181.84375 C 300.179688 179.867188 300.347656 177.929688 300.664062 176.050781 Z M 90.03125 256.714844 L 69.21875 256.714844 L 62.417969 274.273438 C 62.148438 274.976562 62.046875 275.683594 62.113281 276.359375 C 62.171875 277.007812 62.410156 277.664062 62.808594 278.296875 C 63.1875 278.890625 63.644531 279.339844 64.148438 279.625 L 64.324219 279.726562 C 64.757812 279.933594 65.269531 280.042969 65.839844 280.042969 L 74.453125 280.042969 C 75.113281 280.042969 75.707031 279.882812 76.207031 279.589844 C 76.742188 279.273438 77.207031 278.789062 77.578125 278.152344 Z M 285.117188 256.714844 L 297.570312 278.152344 C 297.941406 278.789062 298.410156 279.273438 298.941406 279.589844 C 299.441406 279.882812 300.035156 280.042969 300.695312 280.042969 L 309.308594 280.042969 C 309.941406 280.042969 310.511719 279.898438 311 279.625 C 311.503906 279.339844 311.960938 278.890625 312.339844 278.296875 C 312.738281 277.664062 312.976562 277.007812 313.035156 276.359375 C 313.101562 275.683594 313 274.976562 312.730469 274.273438 L 305.929688 256.714844 Z M 285.117188 256.714844 " fill-opacity="1" fill-rule="evenodd"/></g></svg>