<svg xmlns="http://www.w3.org/2000/svg" xmlns:xlink="http://www.w3.org/1999/xlink" width="500" zoomAndPan="magnify" viewBox="0 0 375 374.999991" height="500" preserveAspectRatio="xMidYMid meet" version="1.0"><defs><clipPath id="39e7dabf02"><path d="M 27.582031 33.179688 L 347.082031 33.179688 L 347.082031 342.179688 L 27.582031 342.179688 Z M 27.582031 33.179688 " clip-rule="nonzero"/></clipPath></defs><g clip-path="url(#39e7dabf02)"><path fill="#000000" d="M 105.890625 59.3125 C 102.746094 50.929688 96.46875 44.351562 88.957031 39.664062 C 75.027344 30.96875 56.332031 30.742188 44.203125 41.328125 C 43.234375 41.554688 42.269531 41.957031 41.378906 42.792969 C 29.535156 53.847656 24.03125 71.878906 30.027344 87.316406 C 36.214844 103.25 51.695312 113.273438 68.8125 111.6875 C 85.3125 110.152344 100.550781 100.046875 106.074219 84.003906 C 108.773438 76.179688 108.808594 67.074219 105.890625 59.3125 Z M 86.238281 53.226562 C 86.183594 53.089844 86.160156 52.949219 86.097656 52.820312 C 86.296875 52.980469 86.515625 53.121094 86.707031 53.289062 C 86.546875 53.269531 86.394531 53.246094 86.238281 53.226562 Z M 344.988281 130.523438 C 341.839844 115.269531 335.277344 100.664062 326.761719 87.683594 C 318.023438 74.363281 307.195312 62.03125 294.699219 52.140625 C 288.355469 47.117188 281.628906 42.90625 274.09375 39.917969 C 265.992188 36.699219 257.226562 35.589844 248.589844 34.96875 C 230.511719 33.667969 211.765625 33.144531 194.164062 38.144531 C 179.117188 42.417969 165.390625 50.289062 153.351562 60.191406 C 140.589844 70.683594 130.039062 83.777344 121.355469 97.789062 C 116.933594 104.917969 112.992188 112.34375 109.421875 119.945312 C 105.828125 127.585938 102.289062 135.4375 100.324219 143.683594 C 99.21875 148.308594 98.707031 153.039062 98.878906 157.730469 C 95.234375 172.316406 99.664062 186.890625 103.566406 200.992188 C 105.480469 207.910156 107.359375 214.941406 107.507812 222.160156 C 107.660156 229.785156 105.378906 236.617188 101.484375 243.117188 C 92.851562 257.507812 80.480469 268.625 68.4375 280.015625 C 57.445312 290.398438 49.121094 304.195312 56.703125 319.203125 C 60.105469 325.945312 66.023438 331.042969 71.917969 335.546875 C 78.71875 340.742188 86.007812 344.253906 94.511719 340.804688 C 102.246094 337.667969 108.378906 330.742188 113.640625 324.472656 C 118.964844 318.117188 123.691406 311.261719 127.601562 303.941406 C 131.226562 297.136719 134.261719 289.464844 140.378906 284.449219 C 145.585938 280.183594 152.554688 278.125 159.164062 277.558594 C 176.425781 276.074219 193.164062 282.621094 210.210938 284.179688 C 239.230469 286.832031 269.40625 277.945312 292.867188 260.746094 C 319.3125 241.355469 335.449219 212.332031 343.347656 180.820312 C 347.488281 164.242188 348.453125 147.300781 344.988281 130.523438 Z M 334.28125 162.917969 C 332.433594 178.6875 327.179688 194.636719 320.230469 208.871094 C 313.871094 221.886719 305.542969 233.625 294.816406 243.386719 C 275.183594 261.234375 248.828125 271.765625 222.328125 272.289062 C 218.171875 272.367188 214.085938 272.101562 210.03125 271.648438 C 176.230469 238.730469 143.785156 204.492188 112.570312 169.105469 C 112.921875 168.058594 113.054688 166.890625 112.59375 165.515625 C 111.726562 162.941406 111.371094 160.332031 111.21875 157.71875 C 111.230469 157.257812 111.253906 156.800781 111.164062 156.382812 C 110.929688 144.234375 117.105469 131.910156 122.332031 121.386719 C 129.152344 107.660156 137.269531 94.449219 147.472656 82.96875 C 157.167969 72.058594 168.546875 62.789062 181.59375 56.195312 C 195.714844 49.058594 210.972656 46.484375 226.683594 46.453125 C 242.394531 46.414062 260.203125 46.1875 274.527344 53.523438 C 287.460938 60.148438 298.246094 70.960938 307.429688 82.066406 C 326.078125 104.585938 337.753906 133.363281 334.28125 162.917969 Z M 334.28125 162.917969 " fill-opacity="1" fill-rule="nonzero"/></g></svg>