<svg xmlns="http://www.w3.org/2000/svg" xmlns:xlink="http://www.w3.org/1999/xlink" width="500" zoomAndPan="magnify" viewBox="0 0 375 374.999991" height="500" preserveAspectRatio="xMidYMid meet" version="1.0"><defs><clipPath id="8550b4af87"><path d="M 14.332031 14.332031 L 360.832031 14.332031 L 360.832031 360.832031 L 14.332031 360.832031 Z M 14.332031 14.332031 " clip-rule="nonzero"/></clipPath></defs><g clip-path="url(#8550b4af87)"><path fill="#100f0d" d="M 187.621094 343.035156 C 101.917969 343.035156 32.195312 273.320312 32.195312 187.625 C 32.195312 101.921875 101.917969 32.199219 187.621094 32.199219 C 273.320312 32.199219 343.042969 101.921875 343.042969 187.625 C 343.042969 273.320312 273.320312 343.035156 187.621094 343.035156 Z M 187.621094 14.355469 C 92.078125 14.355469 14.351562 92.085938 14.351562 187.625 C 14.351562 283.160156 92.078125 360.882812 187.621094 360.882812 C 283.160156 360.882812 360.886719 283.160156 360.886719 187.625 C 360.886719 92.085938 283.160156 14.355469 187.621094 14.355469 " fill-opacity="1" fill-rule="nonzero"/></g><path fill="#100f0d" d="M 267.265625 82.507812 C 267.265625 82.507812 220.890625 67.144531 213.492188 145.949219 C 206.09375 224.765625 238.820312 215.65625 238.820312 215.65625 L 238.820312 283.085938 C 238.820312 283.085938 241.382812 295.613281 255.039062 295.613281 C 268.695312 295.613281 267.265625 281.667969 267.265625 281.667969 L 267.265625 82.507812 " fill-opacity="1" fill-rule="nonzero"/><path fill="#100f0d" d="M 182.578125 79.648438 C 172.070312 79.648438 172.847656 94.160156 172.847656 94.160156 L 172.847656 154.941406 C 172.847656 154.941406 173.023438 161.414062 163.144531 161.414062 C 155.1875 161.414062 155.394531 154.476562 155.394531 154.476562 L 155.394531 94.472656 C 155.394531 94.472656 155.394531 81.808594 147.972656 81.808594 C 140.5625 81.808594 139.324219 94.160156 139.324219 94.160156 L 139.324219 153.792969 C 139.324219 153.792969 139.324219 159.964844 130.675781 159.964844 C 124.351562 159.964844 120.097656 155.699219 120.480469 151.9375 L 120.480469 93.554688 C 120.480469 93.554688 119.246094 82.726562 112.753906 82.726562 C 106.265625 82.726562 104.417969 92.625 104.417969 92.625 C 104.417969 92.625 99.777344 140.503906 102.25 168.328125 C 104.71875 196.128906 132.957031 201.378906 132.957031 201.378906 L 132.957031 278 C 132.957031 278 132.957031 294.054688 146.550781 294.054688 C 160.140625 294.054688 159.828125 277.6875 159.828125 277.6875 L 159.828125 201.695312 C 183.625 193.355469 192.027344 178.328125 192.027344 169.988281 C 192.027344 161.644531 191.230469 93.855469 191.230469 93.855469 C 191.230469 93.855469 190.917969 79.648438 182.578125 79.648438 " fill-opacity="1" fill-rule="nonzero"/></svg>