<svg xmlns="http://www.w3.org/2000/svg" xmlns:xlink="http://www.w3.org/1999/xlink" width="500" zoomAndPan="magnify" viewBox="0 0 375 374.999991" height="500" preserveAspectRatio="xMidYMid meet" version="1.0"><defs><clipPath id="ace64f6b30"><path d="M 27 41.816406 L 158 41.816406 L 158 132 L 27 132 Z M 27 41.816406 " clip-rule="nonzero"/></clipPath></defs><path fill="#000000" d="M 221.617188 264.265625 C 215.113281 264.265625 203.671875 244.082031 171.289062 263.433594 C 170.023438 264.183594 168.433594 264.148438 167.214844 263.332031 C 154.363281 254.730469 131.101562 250.246094 122.414062 262.472656 C 121.191406 264.195312 118.796875 264.589844 117.085938 263.351562 C 108.398438 257.089844 89.527344 248.25 80.289062 259.671875 C 80.011719 260.011719 79.679688 260.300781 79.300781 260.53125 C 64.351562 269.609375 46.726562 256.472656 53.070312 251.191406 C 54.671875 249.851562 57.066406 250.066406 58.410156 251.660156 C 59.144531 252.515625 65.597656 259.539062 74.835938 254.347656 C 86.671875 240.523438 106.632812 247.605469 118.601562 255.214844 C 130.957031 242.5625 154.644531 246.863281 169.402344 255.734375 C 188.796875 244.683594 204.207031 244.703125 221.523438 255.847656 C 237.15625 245.164062 255.707031 245.105469 271.015625 255.695312 C 304.945312 237.597656 305.816406 254.722656 324.699219 256.398438 C 334.847656 257.296875 336.808594 246.871094 341.71875 251.152344 C 347.328125 256.039062 333.734375 264.816406 324.03125 263.957031 C 301.253906 261.945312 305.527344 245.230469 272.554688 263.496094 C 271.230469 264.230469 269.597656 264.105469 268.394531 263.183594 C 254.851562 252.769531 237.804688 252.886719 223.914062 263.480469 C 223.242188 264.007812 222.429688 264.269531 221.617188 264.269531 Z M 221.617188 264.265625 " fill-opacity="1" fill-rule="evenodd"/><path fill="#000000" d="M 221.617188 295.871094 C 215.125 295.871094 203.609375 275.679688 171.289062 295.035156 C 170.023438 295.792969 168.433594 295.757812 167.214844 294.9375 C 154.355469 286.335938 131.097656 281.847656 122.414062 294.074219 C 121.195312 295.789062 118.808594 296.191406 117.089844 294.957031 C 108.402344 288.691406 89.53125 279.855469 80.292969 291.277344 C 80.015625 291.617188 79.683594 291.90625 79.304688 292.136719 C 64.277344 301.195312 46.753906 288.066406 53.074219 282.796875 C 54.675781 281.453125 57.066406 281.667969 58.414062 283.261719 C 59.136719 284.105469 65.59375 291.148438 74.839844 285.953125 C 86.679688 272.128906 106.640625 279.214844 118.605469 286.816406 C 130.964844 274.15625 154.644531 278.464844 169.40625 287.335938 C 188.792969 276.285156 204.203125 276.304688 221.527344 287.449219 C 237.160156 276.761719 255.707031 276.703125 271.015625 287.300781 C 304.933594 269.207031 305.773438 286.296875 324.699219 288 C 334.855469 288.917969 336.804688 278.464844 341.722656 282.753906 C 347.328125 287.644531 333.738281 296.421875 324.035156 295.5625 C 301.273438 293.546875 305.488281 276.832031 272.554688 295.097656 C 271.230469 295.832031 269.601562 295.710938 268.394531 294.785156 C 254.855469 284.375 237.808594 284.488281 223.914062 295.085938 C 223.238281 295.609375 222.421875 295.871094 221.613281 295.871094 Z M 221.617188 295.871094 " fill-opacity="1" fill-rule="evenodd"/><path fill="#000000" d="M 221.617188 327.472656 C 215.191406 327.472656 203.601562 307.292969 171.289062 326.640625 C 170.023438 327.394531 168.433594 327.359375 167.214844 326.539062 C 154.363281 317.9375 131.101562 313.453125 122.414062 325.679688 C 121.195312 327.394531 118.808594 327.800781 117.089844 326.5625 C 108.402344 320.292969 89.527344 311.464844 80.292969 322.882812 C 80.019531 323.222656 79.683594 323.515625 79.304688 323.742188 C 64.273438 332.808594 46.753906 319.667969 53.074219 314.402344 C 54.675781 313.0625 57.066406 313.273438 58.414062 314.871094 C 59.136719 315.71875 65.59375 322.757812 74.839844 317.5625 C 86.679688 303.738281 106.636719 310.820312 118.605469 318.421875 C 130.960938 305.765625 154.648438 310.074219 169.40625 318.941406 C 188.800781 307.894531 204.210938 307.914062 221.527344 319.058594 C 237.15625 308.371094 255.710938 308.308594 271.015625 318.90625 C 304.941406 300.808594 305.792969 317.914062 324.699219 319.609375 C 334.851562 320.519531 336.804688 310.078125 341.722656 314.359375 C 347.328125 319.246094 333.742188 328.03125 324.035156 327.167969 C 301.242188 325.148438 305.527344 308.441406 272.554688 326.703125 C 271.230469 327.4375 269.601562 327.3125 268.394531 326.390625 C 254.855469 315.980469 237.808594 316.089844 223.914062 326.691406 C 223.238281 327.214844 222.421875 327.476562 221.613281 327.476562 Z M 221.617188 327.472656 " fill-opacity="1" fill-rule="evenodd"/><path fill="#000000" d="M 241.984375 216.535156 C 240.851562 216.535156 239.730469 216.035156 238.980469 215.066406 L 220.925781 191.839844 L 96.234375 191.839844 C 95.144531 191.839844 94.109375 191.371094 93.386719 190.558594 L 56.082031 148.4375 C 53.933594 146.015625 55.628906 142.175781 58.875 142.128906 L 81.246094 141.808594 C 82.453125 141.820312 83.566406 142.332031 84.296875 143.265625 L 105.042969 169.84375 L 211.59375 169.84375 C 212.765625 169.84375 213.871094 170.386719 214.59375 171.3125 L 244.984375 210.414062 C 246.941406 212.933594 245.050781 216.535156 241.984375 216.535156 Z M 97.949219 184.246094 L 215.027344 184.246094 L 209.734375 177.433594 L 103.1875 177.433594 C 102.015625 177.433594 100.910156 176.894531 100.1875 175.972656 L 79.464844 149.425781 L 67.257812 149.597656 Z M 97.949219 184.246094 " fill-opacity="1" fill-rule="evenodd"/><path fill="#000000" d="M 74.878906 216.535156 C 71.660156 216.535156 69.867188 212.722656 72.003906 210.253906 L 93.363281 185.5625 C 96.636719 181.78125 102.382812 186.75 99.113281 190.527344 L 77.753906 215.21875 C 77.003906 216.089844 75.945312 216.535156 74.878906 216.535156 Z M 74.878906 216.535156 " fill-opacity="1" fill-rule="evenodd"/><path fill="#000000" d="M 244.789062 216.535156 L 56.121094 216.535156 C 51.121094 216.535156 51.121094 208.945312 56.121094 208.945312 L 244.789062 208.945312 C 249.792969 208.945312 249.792969 216.535156 244.789062 216.535156 Z M 244.789062 216.535156 " fill-opacity="1" fill-rule="evenodd"/><g clip-path="url(#ace64f6b30)"><path fill="#000000" d="M 34.378906 131.089844 C 30.785156 131.089844 30.472656 127.386719 29.644531 124.300781 C 18.457031 82.585938 50.164062 41.816406 92.914062 41.816406 C 122.609375 41.816406 148.707031 61.785156 156.375 90.382812 C 157.113281 93.132812 159.132812 97.835938 154.753906 99.007812 Z M 92.914062 49.402344 C 55.40625 49.402344 27.078125 84.902344 37.070312 122.640625 L 149.117188 92.648438 C 142.367188 67.152344 119.3125 49.402344 92.914062 49.402344 Z M 92.914062 49.402344 " fill-opacity="1" fill-rule="evenodd"/></g><path fill="#000000" d="M 66.390625 122.523438 C 65.148438 122.523438 63.933594 121.917969 63.207031 120.804688 C 43.964844 91.453125 73.542969 46.070312 73.84375 45.617188 C 74.902344 44.015625 76.988281 43.460938 78.710938 44.3125 C 79.199219 44.554688 127.503906 69.621094 125.5625 104.117188 C 125.28125 109.148438 117.695312 108.660156 117.976562 103.691406 C 119.371094 78.84375 88.398438 58.667969 78.382812 52.820312 C 72.640625 62.890625 55.917969 95.832031 69.558594 116.648438 C 71.234375 119.203125 69.332031 122.519531 66.386719 122.519531 Z M 66.390625 122.523438 " fill-opacity="1" fill-rule="evenodd"/><path fill="#000000" d="M 110.796875 177.4375 C 109.117188 177.4375 107.582031 176.320312 107.125 174.625 L 90.40625 112.292969 C 89.113281 107.46875 96.457031 105.5 97.753906 110.332031 L 114.46875 172.660156 C 115.121094 175.078125 113.289062 177.4375 110.796875 177.4375 Z M 110.796875 177.4375 " fill-opacity="1" fill-rule="evenodd"/><path fill="#000000" d="M 220.976562 104.984375 C 210.917969 104.984375 202.738281 96.808594 202.738281 86.761719 C 202.738281 76.714844 210.921875 68.539062 220.976562 68.539062 C 231.035156 68.539062 239.222656 76.714844 239.222656 86.761719 C 239.222656 96.8125 231.039062 104.984375 220.976562 104.984375 Z M 220.976562 76.132812 C 206.972656 76.132812 206.976562 97.394531 220.976562 97.394531 C 234.984375 97.394531 234.984375 76.132812 220.976562 76.132812 Z M 220.976562 76.132812 " fill-opacity="1" fill-rule="evenodd"/><path fill="#000000" d="M 220.976562 66.707031 C 215.800781 66.707031 217.175781 59.472656 217.175781 53.078125 C 217.175781 48.078125 224.777344 48.078125 224.777344 53.078125 C 224.777344 59.480469 226.152344 66.707031 220.976562 66.707031 Z M 220.976562 66.707031 " fill-opacity="1" fill-rule="evenodd"/><path fill="#000000" d="M 237.863281 73.695312 C 234.511719 73.695312 232.769531 69.617188 235.179688 67.210938 C 239.707031 62.6875 243.855469 56.601562 247.515625 60.257812 C 251.179688 63.917969 245.074219 68.050781 240.546875 72.582031 C 239.808594 73.324219 238.835938 73.695312 237.863281 73.695312 Z M 237.863281 73.695312 " fill-opacity="1" fill-rule="evenodd"/><path fill="#000000" d="M 254.703125 90.558594 C 248.300781 90.558594 241.058594 91.933594 241.058594 86.761719 C 241.058594 81.59375 248.304688 82.96875 254.703125 82.96875 C 259.707031 82.96875 259.707031 90.558594 254.703125 90.558594 Z M 254.703125 90.558594 " fill-opacity="1" fill-rule="evenodd"/><path fill="#000000" d="M 244.824219 114.382812 C 242.191406 114.382812 238.167969 109.316406 235.171875 106.316406 C 231.632812 102.777344 237.011719 97.414062 240.546875 100.945312 C 245.074219 105.46875 251.175781 109.617188 247.511719 113.273438 C 246.773438 114.011719 245.800781 114.382812 244.824219 114.382812 Z M 244.824219 114.382812 " fill-opacity="1" fill-rule="evenodd"/><path fill="#000000" d="M 220.976562 124.25 C 215.800781 124.25 217.175781 117.011719 217.175781 110.617188 C 217.175781 105.621094 224.777344 105.621094 224.777344 110.617188 C 224.777344 117.019531 226.152344 124.25 220.976562 124.25 Z M 220.976562 124.25 " fill-opacity="1" fill-rule="evenodd"/><path fill="#000000" d="M 197.132812 114.382812 C 193.773438 114.382812 192.042969 110.296875 194.445312 107.902344 C 198.96875 103.378906 203.121094 97.285156 206.78125 100.945312 C 210.4375 104.601562 204.363281 108.742188 199.820312 113.269531 C 199.078125 114.007812 198.105469 114.382812 197.132812 114.382812 Z M 197.132812 114.382812 " fill-opacity="1" fill-rule="evenodd"/><path fill="#000000" d="M 197.101562 90.558594 C 190.699219 90.558594 183.457031 91.933594 183.457031 86.761719 C 183.457031 81.59375 190.699219 82.96875 197.101562 82.96875 C 202.105469 82.96875 202.105469 90.558594 197.101562 90.558594 Z M 197.101562 90.558594 " fill-opacity="1" fill-rule="evenodd"/><path fill="#000000" d="M 204.09375 73.695312 C 201.460938 73.695312 197.457031 68.632812 194.445312 65.628906 C 190.902344 62.09375 196.285156 56.722656 199.820312 60.261719 C 204.351562 64.792969 210.445312 68.925781 206.78125 72.582031 C 206.039062 73.324219 205.066406 73.695312 204.09375 73.695312 Z M 204.09375 73.695312 " fill-opacity="1" fill-rule="evenodd"/><path fill="#000000" d="M 339.894531 216.535156 L 244.789062 216.535156 C 239.785156 216.535156 239.789062 208.945312 244.789062 208.945312 L 339.894531 208.945312 C 344.894531 208.945312 344.894531 216.535156 339.894531 216.535156 Z M 339.894531 216.535156 " fill-opacity="1" fill-rule="evenodd"/><path fill="#000000" d="M 274.394531 248.027344 C 272.296875 248.027344 270.597656 246.324219 270.597656 244.230469 L 270.597656 161.0625 C 270.597656 151.242188 278.59375 143.257812 288.421875 143.257812 C 304.875 143.257812 311.039062 164.859375 302.449219 164.859375 C 300.355469 164.859375 298.648438 163.160156 298.648438 161.0625 C 298.648438 147.617188 278.203125 147.621094 278.203125 161.0625 L 278.203125 244.230469 C 278.195312 246.324219 276.492188 248.027344 274.394531 248.027344 Z M 274.394531 248.027344 " fill-opacity="1" fill-rule="evenodd"/><path fill="#000000" d="M 319.855469 248.027344 C 317.757812 248.027344 316.054688 246.324219 316.054688 244.230469 L 316.054688 161.0625 C 316.054688 151.242188 324.050781 143.257812 333.882812 143.257812 C 350.332031 143.257812 356.5 164.859375 347.910156 164.859375 C 345.8125 164.859375 344.109375 163.160156 344.109375 161.0625 C 344.109375 147.621094 323.660156 147.617188 323.660156 161.0625 L 323.660156 244.230469 C 323.65625 246.324219 321.953125 248.027344 319.855469 248.027344 Z M 319.855469 248.027344 " fill-opacity="1" fill-rule="evenodd"/><path fill="#000000" d="M 319.855469 181.746094 L 274.394531 181.746094 C 269.390625 181.746094 269.394531 174.15625 274.394531 174.15625 L 319.855469 174.15625 C 324.859375 174.15625 324.859375 181.746094 319.855469 181.746094 Z M 319.855469 181.746094 " fill-opacity="1" fill-rule="evenodd"/><path fill="#000000" d="M 319.855469 199.140625 L 274.394531 199.140625 C 269.390625 199.140625 269.394531 191.546875 274.394531 191.546875 L 319.855469 191.546875 C 324.859375 191.546875 324.859375 199.140625 319.855469 199.140625 Z M 319.855469 199.140625 " fill-opacity="1" fill-rule="evenodd"/><path fill="#000000" d="M 319.855469 216.535156 L 274.394531 216.535156 C 269.390625 216.535156 269.394531 208.945312 274.394531 208.945312 L 319.855469 208.945312 C 324.859375 208.945312 324.859375 216.535156 319.855469 216.535156 Z M 319.855469 216.535156 " fill-opacity="1" fill-rule="evenodd"/><path fill="#000000" d="M 319.855469 233.925781 L 274.394531 233.925781 C 269.390625 233.925781 269.394531 226.332031 274.394531 226.332031 L 319.855469 226.332031 C 324.859375 226.332031 324.859375 233.925781 319.855469 233.925781 Z M 319.855469 233.925781 " fill-opacity="1" fill-rule="evenodd"/></svg>